<svg xmlns="http://www.w3.org/2000/svg" width="42.997" height="43.012" viewBox="0 0 42.997 43.012">
  <path id="ticket" d="M963.692,1176.71l10.585,10.588a2.176,2.176,0,0,0,3.074,0l3.948-3.949a2.175,2.175,0,0,0,0-3.075l-10.585-10.588a2.173,2.173,0,0,0-3.074,0l-3.948,3.949A2.178,2.178,0,0,0,963.692,1176.71Zm5.485-4.595,9.693,9.7-3.056,3.057-9.693-9.7Zm24.27,10.8-25.37-25.379a1.87,1.87,0,0,0-2.644,0l-3.556,3.557a1.87,1.87,0,0,0-.417,2.009,3.353,3.353,0,0,1-4.351,4.353,1.87,1.87,0,0,0-2.008.417l-3.556,3.557a1.87,1.87,0,0,0,0,2.645l25.37,25.379a1.87,1.87,0,0,0,2.644,0l3.556-3.557a1.871,1.871,0,0,0,.417-2.009,3.352,3.352,0,0,1,4.351-4.352,1.87,1.87,0,0,0,2.008-.417l3.556-3.557A1.871,1.871,0,0,0,993.446,1182.912Zm-5.422,2.779a7.092,7.092,0,0,0-8.333,8.336l-1.456,1.456-22.726-22.734,1.456-1.456a7.092,7.092,0,0,0,8.333-8.336l1.456-1.456,22.726,22.734Z" transform="translate(-950.996 -1156.986)" fill="#02ca03"/>
</svg>
