<svg xmlns="http://www.w3.org/2000/svg" width="62.114" height="52.227" viewBox="0 0 62.114 52.227">
  <path id="time-reverse" d="M1163,799.114a26.236,26.236,0,0,1-41.051,21.53,2.664,2.664,0,0,1-.686-3.726,2.713,2.713,0,0,1,3.757-.681A20.751,20.751,0,1,0,1116,798.364l6.3-6.278a2.716,2.716,0,0,1,3.819-.009,2.663,2.663,0,0,1,.01,3.788l-10.31,10.277a2.716,2.716,0,0,1-3.829,0l-10.31-10.277a2.663,2.663,0,0,1,.01-3.788,2.716,2.716,0,0,1,3.819.009l5.15,5.134A26.213,26.213,0,0,1,1163,799.114Zm-26.332-15.2a2.69,2.69,0,0,0-2.7,2.678v12.519a2.73,2.73,0,0,0,.846,1.89l5.8,5.754a2.745,2.745,0,0,0,3.842.009,2.664,2.664,0,0,0-.047-3.788l-5.043-4.97V786.594A2.69,2.69,0,0,0,1136.672,783.916Z" transform="translate(-1100.891 -773)" fill="#5a5a5a"/>
</svg>
